<?xml version="1.0" encoding="utf-8"?>
<!-- Generator: Adobe Illustrator 20.1.0, SVG Export Plug-In . SVG Version: 6.00 Build 0)  -->
<svg version="1.1" id="Layer_1" xmlns="http://www.w3.org/2000/svg" xmlns:xlink="http://www.w3.org/1999/xlink" x="0px" y="0px"
	 viewBox="0 0 187.087 60.488" style="enable-background:new 0 0 187.087 60.488;" xml:space="preserve">
<style type="text/css">
	.st0{fill-rule:evenodd;clip-rule:evenodd;}
</style>
<path class="st0" d="M76.996,55.751c3.266-0.158,5.442-0.632,6.375-1.421c0.933-0.79,1.4-2.685,1.4-5.843V12.165
	c0-3.001-0.467-5.053-1.4-5.843c-0.933-0.789-3.11-1.421-6.375-1.579V3.321h23.791v1.421c-3.266,0.158-5.287,0.79-6.375,1.579
	c-0.933,0.79-1.399,2.843-1.399,5.843v36.321c0,3.158,0.467,5.053,1.399,5.843c1.089,0.789,3.11,1.263,6.375,1.421v1.579H76.996
	V55.751L76.996,55.751L76.996,55.751z"/>
<path class="st0" d="M184.444,35.063c-1.866-2.369-4.976-4.895-9.33-7.738l-7.153-4.264c-2.644-1.737-4.51-3.316-5.753-4.895
	c-1.244-1.421-1.866-3.158-1.866-5.369c0-2.211,0.778-4.106,2.333-5.369c1.71-1.421,3.576-2.053,5.753-2.053
	c2.799,0,5.753,1.105,8.552,3.158c2.954,2.053,5.131,5.685,6.375,10.896h1.866l-1.71-17.371h-1.71
	c-0.155,0.947-0.467,1.579-0.778,2.053c-0.466,0.474-1.088,0.789-2.177,0.789c-0.311,0-1.711-0.474-4.354-1.421
	c-2.644-0.948-4.82-1.421-6.531-1.421c-4.51,0-8.086,1.421-10.729,4.106c-2.799,2.843-4.043,6.159-4.043,10.265
	c0,3.158,1.088,6.001,3.421,8.527c1.089,1.421,2.799,2.685,4.82,4.106l6.842,4.264c4.043,2.527,6.686,4.422,7.775,5.685
	c2.022,1.895,2.955,4.264,2.955,6.948c0,3-0.933,5.211-2.955,6.949c-1.71,1.579-4.043,2.369-6.531,2.369
	c-4.82,0-8.708-1.895-11.973-5.685c-1.71-2.211-3.421-5.053-4.665-8.685h-1.866l1.958,14.581c-0.838-0.187-1.589-0.447-2.269-0.842
	c-0.933-0.632-2.021-1.421-3.11-2.685l-16.483-20.687c4.509-0.79,7.93-2.211,10.573-4.422c2.644-2.211,3.887-5.212,3.887-9.317
	c0-6.001-2.954-10.265-8.708-12.476c-3.11-1.263-6.997-1.737-11.662-1.737h-22.236v1.421c2.954,0.316,4.82,0.79,5.598,1.737
	c0.933,0.948,1.399,2.685,1.399,5.685v35.216c0,3.474-0.467,5.685-1.244,6.633c-0.777,0.79-2.643,1.421-5.753,1.737v1.579h22.391
	v-1.579c-3.11-0.158-4.976-0.789-5.909-1.579c-0.933-0.789-1.399-2.684-1.399-5.685V32.379l4.509-0.158l19.126,25.109h11.535
	l0.127,0.948h1.866c0-0.789,0.311-1.421,0.622-1.895c0.311-0.632,0.933-0.948,1.866-0.948c0.311,0,1.866,0.474,4.665,1.421
	c2.643,0.948,5.287,1.421,7.775,1.421c4.976,0,9.019-1.421,12.129-4.264c3.265-2.843,4.82-6.475,4.82-10.738
	C187.087,40.117,186.154,37.432,184.444,35.063z M118.047,29.378V9.165c0-1.263,0.311-1.895,0.778-2.211
	c0.466-0.474,1.866-0.632,4.198-0.632c3.421,0,6.064,0.474,8.086,1.421c3.887,1.737,5.753,5.054,5.753,9.633
	c0,5.053-2.177,8.37-6.375,10.107C127.998,28.431,123.8,29.062,118.047,29.378z"/>
<path class="st0" d="M28.014,1.269c3.732-1.421,7.619-1.263,8.708-1.263c-0.778,2.369-3.887,6.949-7.153,8.528
	c-1.71,0.947-5.287,1.579-7.464,2.211c-2.488,0.79-6.531,2.053-9.485,4.422c-2.021,1.579-2.954,3.79-2.799,6.949
	c1.866-2.053,5.753-4.422,8.863-5.527c-0.778,2.843-0.622,5.211-1.71,7.896c-0.622,1.737-5.287,5.685-6.531,7.896
	C9.51,33.8,8.888,36.327,9.355,38.537c0,0,1.089-1.579,2.021-2.527c1.866-2.053,5.754-4.738,5.754-4.738
	c0,1.421-0.622,7.738-1.244,10.265c-0.622,2.211-4.509,6.159-5.598,7.422c0,0,1.089,3.001,1.71,4.895c0.622,1.737,0.933,3,0.933,3
	c-1.399-0.474-7.62-3.158-9.485-5.053c-2.333-2.369-2.488-4.895-2.799-7.58c-0.156-0.948-0.778-6.317-0.622-7.422
	c0.156,0,3.421,2.369,4.976,4.264c1.866,2.053,3.266,4.106,3.266,4.106c-0.156-0.948-0.311-1.579-0.467-2.211
	c-0.155-1.737,0.933-3,0.778-3.316c0,0-0.156-0.316-0.622-1.263c-0.933-2.053-5.443-5.211-6.686-7.264
	c-0.467-0.789-1.71-2.842-0.933-12.476c0,0,3.576,3.79,5.442,6.159c1.244,1.579,2.488,4.106,2.488,4.106
	C7.8,25.43,9.199,23.693,9.044,23.693c0,0-0.156-1.263-0.778-2.211c-1.71-3.001-5.598-4.58-6.22-8.212
	C1.58,10.586,2.824,8.375,9.044,5.848c1.244,4.264,0.466,8.054,0.311,11.528c3.11-2.527,2.643-9.159,4.198-11.528
	c0.466-0.948,1.244-1.895,3.421-2.843c2.177-0.789,3.421-1.421,5.443-1.737c0,0.316-1.089,4.264-2.022,6.317
	c-1.089,2.369-2.643,3.316-2.643,3.474c2.332-0.632,4.198-1.737,5.753-4.106c0.622-0.79,1.244-1.737,1.866-2.685
	C25.993,3.164,26.615,1.9,28.014,1.269L28.014,1.269z"/>
<path class="st0" d="M66.577,18.798c-0.933-7.264-1.399-9.159-2.333-10.738c-0.778-1.263-8.708-5.054-20.214-7.422
	c-4.665,5.211-4.665,7.264-4.82,8.054c-0.156,0.789,1.555,3,3.265,5.211c3.11,4.106,4.043,4.895,4.509,6.159
	c0.933,2.211-0.622,7.58-1.71,12.476c0-0.158-2.799-10.422-4.043-17.055c-0.156-0.632,0-0.947,0-0.947
	c-6.997-0.632-11.818-0.948-12.595,2.684c-3.266,0-4.82,0.948-5.132,1.579c-0.777,1.421,0.156,4.264,0.778,5.685
	c0.467-1.105,3.266-0.947,4.198-0.947c0.467,0.158,0.467,0.316,0.622,0.632v13.897h-8.397l-7.153,19.582
	c3.266,1.579,6.842,2.843,9.019,2.843s7.619-2.843,8.397-2.843c0.622,0,6.064,2.843,8.241,2.843c2.177,0,5.753-1.106,9.019-2.843
	l-7.153-19.582c0,0-7.308,0-8.397,0c0-3.158,0-10.107,0-13.265c-0.155-0.789-0.466-1.105-0.778-1.105l4.199-0.158
	c-0.622-2.369-1.399-4.106-2.644-4.264c0.311-0.474,0.622-0.79,1.089-1.105H31.28c0.311-1.737,4.509-1.106,6.375-0.948
	c1.866,9.317,5.443,21.951,5.598,22.109c0.156,0.158,3.11,1.263,3.421,1.421c1.71-3.79,4.354-14.844,4.51-17.529
	c2.177,0.79,1.399,3.632,0.933,6.633c-2.488,15.16-4.509,19.74-4.976,22.582c2.177-0.474,3.421-0.947,3.732-1.105
	c0.311-0.474,1.244-3,2.177-5.843c1.244-4.106,3.266-14.529,3.266-18.634c0-0.948-0.933-2.053-2.332-2.685
	c0,0,0.777-1.263,1.088-2.211c0.467-0.948,0.933-2.843,0.933-2.843c0.933,0.316,1.555,0.632,1.71,1.579
	c0.467,3.948,0.311,4.264-0.311,11.686c0,2.211-0.933,6.949-1.71,11.844c-1.555,8.844-3.11,12.633-3.11,14.055
	c2.332-0.789,4.198-1.421,4.354-1.737c0.156-0.316,1.866-4.58,3.11-11.054c0.467-2.843,0.778-5.527,1.244-8.37
	c0.622-3.79,0.777-7.738,0.777-10.896c0-4.738,0.622-4.738-2.954-6.633c1.399-3.79,1.089-6.317,0.778-7.106
	c-0.622-1.263-1.244-1.263-4.354-1.105c1.089,1.105,0.778,3.158,0.467,4.422c-0.622-0.474-0.311-1.421-3.576-1.263
	c-0.467-5.369-1.555-6.001-1.555-6.159c-0.466-0.632-3.265-0.316-4.043,0c0.622,0.474,1.866,4.58,1.244,6.317
	c-0.311-0.474-4.976-5.843-4.665-6.791c0.311-0.632,0.622-1.263,2.177-3.158c5.443,1.106,14.617,4.58,15.239,5.527
	c0.467,1.263,1.089,2.685,1.399,4.738c0.467,3.158,1.399,10.423,0.933,21.635c-0.466,11.686-2.021,18.161-1.866,17.845
	c1.71-0.474,4.354-3.158,4.665-3.79c0.778-1.895,1.089-8.685,1.244-14.844C67.51,29.536,66.888,21.798,66.577,18.798z
	 M22.572,56.382c-1.71,0-4.198-0.316-4.198-0.316l4.198-12.318l3.887,12.318C26.459,56.067,24.127,56.382,22.572,56.382z
	 M43.408,56.067c0,0-2.488,0.316-4.198,0.316c-1.399,0-3.887-0.316-3.887-0.316l3.887-12.318L43.408,56.067z M32.679,46.591v-4.738
	h3.576l-5.442,15.318l-5.287-15.318h3.576v3.317c0,0,0,0.316,0.156,0.316c0.467,0.316,0.622,0.316,0.622,0.316L32.679,46.591z
	 M33.146,21.64h-6.22c-0.467-1.579,0-1.895,1.399-2.053C30.813,19.429,32.99,19.429,33.146,21.64z M50.872,14.85
	c2.177-0.316,1.244,3.79,0.622,5.369c-0.933-1.895-1.555-3.158-2.955-4.895C49.317,15.008,49.939,15.008,50.872,14.85z"/>
</svg>
