<?xml version="1.0" encoding="utf-8"?>
<!-- Generator: Adobe Illustrator 20.1.0, SVG Export Plug-In . SVG Version: 6.00 Build 0)  -->
<svg version="1.1" id="Layer_1" xmlns="http://www.w3.org/2000/svg" xmlns:xlink="http://www.w3.org/1999/xlink" x="0px" y="0px"
	 viewBox="0 0 491.8 87.6" style="enable-background:new 0 0 491.8 87.6;" xml:space="preserve">
<style type="text/css">
	.st0{fill:#212F64;}
	.st1{fill:#BF2033;}
</style>
<g>
	<g>
		<g>
			<path class="st0" d="M16.4,16.3h3.4c5,0,6.1,3.1,5.5,7.9c4.8-4.9,11.2-8.6,18.5-8.6c8.6,0,15.7,5.5,15.7,19.3
				c0,20.8-11.4,35.5-28.8,35.5c-7.6,0-12-2.6-14.7-5.4l-5.2,22.6H0L16.4,16.3z M23.7,31.3l-6.2,27.1c2.1,2.2,5.2,4.6,11.4,4.6
				c13.2,0,20-12.6,20-27.9c0-8.3-4-11.4-9-11.4C33.9,23.7,28.9,27.1,23.7,31.3z"/>
			<path class="st0" d="M90.3,65.1c-3.6,3.5-8.5,6.1-14.8,6.1c-8.7,0-14.8-5-14.8-14.1c0-11.8,9.4-18.4,23.6-18.4
				c5.2,0,8.3,0.7,11.1,1.8l1-4.5c2-8.7-1.6-12.6-8.7-12.6c-6.4,0-10.9,1.6-14.8,3.7h-3.3l1.8-7.8c4.7-2.1,9.8-3.7,17.9-3.7
				c13.3,0,21.1,6.3,17.7,21.4l-7.8,33.7H96C93.1,70.7,90.5,69.2,90.3,65.1z M91.6,58l2.5-11.2c-2.5-0.9-5.4-1.6-9.2-1.6
				c-8.9,0-14,4.3-14,11.2c0,5.1,3,7.9,8.1,7.9C84.3,64.3,88,61.7,91.6,58z"/>
			<path class="st0" d="M107.5,84.5l12.8-19l-8.5-46.2v-2.9h10.1l6.3,37.5h0.1l22.5-37.6h8.9v2.9L117,87.5h-9.6L107.5,84.5
				L107.5,84.5z"/>
		</g>
		<g>
			<path class="st0" d="M364.6,54.6l7.2-31.2h-6.3l1.6-7.4h6.4l3.4-14.8h10.7L384.2,16h11.3l-1.7,7.4h-11.4L375.2,55
				c-1.4,5.7,0.5,8.4,6.6,8.4h4.1l-1.5,6.6c-1.9,0.6-4.4,1-7.7,1C366.2,71,362.3,65,364.6,54.6z"/>
			<path class="st0" d="M421,64.7c-3.6,3.5-8.5,6.1-14.8,6.1c-8.7,0-14.8-5-14.8-14.1c0-11.8,9.4-18.4,23.6-18.4
				c5.2,0,8.3,0.7,11.1,1.8l1-4.5c2-8.7-1.6-12.6-8.7-12.6c-6.4,0-10.9,1.6-14.8,3.7h-3.3l1.8-7.8c4.7-2.1,9.8-3.7,17.9-3.7
				c13.3,0,21.1,6.3,17.7,21.4l-7.8,33.7h-3.2C423.8,70.4,421.2,68.8,421,64.7z M422.2,57.6l2.5-11.2c-2.5-0.9-5.4-1.6-9.2-1.6
				c-8.9,0-14,4.3-14,11.2c0,5.1,3,7.9,8.1,7.9C415,63.9,418.7,61.3,422.2,57.6z"/>
			<path class="st0" d="M436,67.3l22.3-25.5L448.1,19v-3h10l8.4,19.2L483.1,16h8.7v3l-20.6,23.3l11.3,25.1v3h-10L462.9,49
				l-18.1,21.4H436V67.3L436,67.3z"/>
		</g>
		<g>
			<polygon class="st0" points="352.4,26.7 336.4,36.6 336.6,51.5 326.3,42.8 311,51.5 319.5,36.3 308.5,25.9 278.2,70.1 
				303.3,70.1 309.2,60.9 333.3,60.9 334.5,70.1 359,70.1 			"/>
			<polygon class="st1" points="325.3,26.1 334.5,10.7 335.8,26.3 352.4,26.6 348.5,0.9 325.8,0.9 308.6,25.8 			"/>
		</g>
		<g>
			<path class="st1" d="M290.2,21l7.4-10.7C290.1,3.9,279.2,0,266.9,0c-10.6,0-19.1,3.4-24.5,8.8c-2.7,2.7-4.6,5.8-5.6,9.3
				C254.8,16.6,273.3,17.3,290.2,21z"/>
			<path class="st0" d="M282,32.6c-14.6-4.2-30.3-5.5-45.7-4.9c1.4,7.7,7.3,11.6,18.5,15.7c10,3.7,11.3,4.4,11.3,6.6c0,2-2.1,3-5,3
				c-7.3,0-18.4-3.8-26.2-10.4l-7.3,18c6.2,6.1,16.5,9.9,31,10.8c10.9,0.7,19.4-3.3,24.6-8.5c4.3-4.3,6.6-9.9,6.6-16.1
				C289.8,40.4,286.9,36,282,32.6z"/>
		</g>
		<g>
			<path class="st0" d="M205,31.2l-1.9,7.1c-1.5,5.3-2.8,8-4.9,10c-1.9,1.9-4.5,2.8-7.4,2.8c-6.1,0-9.4-2.9-9.4-8.6
				c0-1.6,0.3-3.4,0.8-5.4l0.1-0.4c-9.7,2.9-18.1,6.2-24.4,9.3c0,0,0,0-0.1,0.1c0,0.2,0,0.5,0,0.7c0,15.5,10.4,24.8,29.8,24.8
				c10.9,0,20.7-2.6,27.2-9c4.8-4.8,8.4-11.5,10.8-20.6l3.7-13.8C220.9,28.7,212.8,29.8,205,31.2z"/>
			<path class="st1" d="M231.8,18.6l4.6-17.2H213l-5.7,21.1C215.2,20.8,223.4,19.5,231.8,18.6z"/>
			<path class="st1" d="M158.3,41.1c6.6-4.4,15.6-8.6,26.1-12.2l7.4-27.5h-23.4l-9.2,34.3c-0.5,1.9-0.9,3.7-1.1,5.6
				C158.2,41.2,158.3,41.1,158.3,41.1z"/>
		</g>
	</g>
</g>
</svg>
