<?xml version="1.0" encoding="utf-8"?>
<!-- Generator: Adobe Illustrator 20.1.0, SVG Export Plug-In . SVG Version: 6.00 Build 0)  -->
<svg version="1.1" id="Layer_1" xmlns="http://www.w3.org/2000/svg" xmlns:xlink="http://www.w3.org/1999/xlink" x="0px" y="0px"
	 viewBox="0 0 100.2 36" style="enable-background:new 0 0 100.2 36;" xml:space="preserve">
<style type="text/css">
	.st0{fill:#4F7297;}
	.st1{fill:#FFFFFF;}
	.st2{fill:#81ACD8;}
</style>
<rect class="st0" width="100.2" height="36"/>
<circle class="st1" cx="50.1" cy="21.654" r="5.975"/>
<g>
	<path class="st2" d="M50.485,21.193c0.932,0.079,1.568,0.621,1.568,1.496c0,1.042-0.787,1.766-2.03,1.766
		c-0.683,0-1.4-0.238-1.877-0.604l0.39-0.764c0.398,0.374,0.915,0.581,1.424,0.581c0.74,0,1.17-0.383,1.17-0.956
		c0-0.604-0.438-0.915-1.177-0.915h-0.773v-0.549l1.449-1.56h-2.228v-0.836h3.39v0.59L50.2,21.161L50.485,21.193z"/>
</g>
<g>
	<g>
		<path class="st1" d="M19.292,10.076c-0.067,0.007-0.142,0.007-0.217,0.007h-1.124v1.43h-0.8V6.77h1.924
			c1.213,0,1.911,0.589,1.911,1.619c0,0.759-0.353,1.294-0.982,1.538l1.063,1.585h-0.908L19.292,10.076z M19.075,9.365
			c0.732,0,1.152-0.312,1.152-0.956c0-0.623-0.42-0.921-1.152-0.921h-1.124v1.877H19.075z"/>
		<path class="st1" d="M25.171,10.008h-2.723c0.121,0.556,0.549,0.901,1.117,0.901c0.394,0,0.752-0.149,1.017-0.42l0.413,0.44
			c-0.353,0.386-0.867,0.61-1.49,0.61c-1.111,0-1.843-0.739-1.843-1.823c0-1.091,0.752-1.829,1.822-1.836
			C24.751,7.881,25.267,8.708,25.171,10.008z M24.494,9.439c-0.027-0.583-0.413-0.935-1.003-0.935c-0.569,0-0.969,0.359-1.057,0.935
			H24.494z"/>
		<path class="st1" d="M26.675,11.512l-1.396-3.604h0.812l1.003,2.839l0.989-2.839h0.779l-1.382,3.604H26.675z"/>
		<path class="st1" d="M30.244,6.879c0,0.271-0.196,0.467-0.454,0.467s-0.454-0.197-0.454-0.467c0-0.278,0.196-0.475,0.454-0.475
			S30.244,6.601,30.244,6.879z M29.404,11.512V7.908h0.772v3.604H29.404z"/>
		<path class="st1" d="M33.665,8.24l-0.284,0.576c-0.318-0.197-0.719-0.318-1.037-0.318c-0.305,0-0.528,0.102-0.528,0.359
			c0,0.664,1.918,0.305,1.911,1.612c0,0.739-0.657,1.071-1.383,1.071c-0.528,0-1.091-0.176-1.449-0.501l0.277-0.556
			c0.312,0.278,0.813,0.447,1.206,0.447c0.332,0,0.59-0.115,0.59-0.386c0-0.738-1.897-0.325-1.891-1.626
			c0-0.732,0.637-1.043,1.328-1.043C32.86,7.874,33.34,8.01,33.665,8.24z"/>
		<path class="st1" d="M36.672,11.072c-0.258,0.318-0.671,0.475-1.192,0.475c-0.779,0-1.268-0.481-1.268-1.118
			c0-0.657,0.495-1.077,1.362-1.084h1.091V9.236c0-0.454-0.291-0.725-0.86-0.725c-0.346,0-0.705,0.122-1.063,0.366l-0.318-0.542
			c0.501-0.298,0.867-0.454,1.551-0.454c0.929,0,1.45,0.474,1.457,1.267l0.007,2.364h-0.766V11.072z M36.665,10.245V9.914H35.69
			c-0.509,0-0.745,0.135-0.745,0.481c0,0.325,0.264,0.535,0.697,0.535C36.197,10.93,36.624,10.638,36.665,10.245z"/>
		<path class="st1" d="M39.259,8.626c0.244-0.488,0.678-0.745,1.247-0.745v0.745c-0.725-0.041-1.186,0.386-1.247,1.003v1.883h-0.778
			V7.908h0.778V8.626z"/>
		<path class="st1" d="M42.944,11.512V6.77h0.8v4.742H42.944z"/>
		<path class="st1" d="M48.39,9.27v2.243H47.61V9.487c0-0.542-0.325-0.874-0.867-0.874c-0.596,0.006-0.969,0.42-1.023,0.982v1.917
			h-0.778V7.908h0.778v0.691c0.258-0.501,0.719-0.718,1.328-0.718C47.888,7.881,48.39,8.409,48.39,9.27z"/>
		<path class="st1" d="M50.354,7.617v0.427h0.943v0.583h-0.943v2.886h-0.772V8.626h-0.474V8.044h0.474V7.691
			c0-0.84,0.617-1.24,1.241-1.24c0.291,0,0.582,0.082,0.812,0.251l-0.298,0.596c-0.149-0.108-0.332-0.169-0.494-0.169
			C50.578,7.129,50.354,7.278,50.354,7.617z"/>
		<path class="st1" d="M55.109,9.71c0,1.084-0.766,1.83-1.877,1.83c-1.117,0-1.883-0.746-1.883-1.83
			c0-1.091,0.766-1.829,1.883-1.829C54.343,7.881,55.109,8.619,55.109,9.71z M52.129,9.717c0,0.698,0.453,1.172,1.104,1.172
			c0.645,0,1.098-0.475,1.098-1.172c0-0.691-0.453-1.165-1.098-1.165C52.582,8.552,52.129,9.026,52.129,9.717z"/>
		<path class="st1" d="M56.701,8.626c0.243-0.488,0.677-0.745,1.246-0.745v0.745c-0.725-0.041-1.186,0.386-1.246,1.003v1.883h-0.779
			V7.908h0.779V8.626z"/>
		<path class="st1" d="M64.612,9.27v2.243h-0.779V9.487c0-0.548-0.325-0.88-0.854-0.88C62.363,8.626,61.99,9.1,61.99,9.731v1.782
			h-0.779V9.487c0-0.548-0.318-0.88-0.847-0.88c-0.623,0.02-1.002,0.494-1.002,1.125v1.782H58.59V7.908h0.772v0.698
			c0.25-0.508,0.711-0.725,1.308-0.725c0.644,0,1.084,0.318,1.253,0.867c0.23-0.603,0.711-0.867,1.368-0.867
			C64.118,7.881,64.612,8.409,64.612,9.27z"/>
		<path class="st1" d="M67.815,11.072c-0.258,0.318-0.671,0.475-1.192,0.475c-0.779,0-1.268-0.481-1.268-1.118
			c0-0.657,0.495-1.077,1.362-1.084h1.091V9.236c0-0.454-0.291-0.725-0.86-0.725c-0.346,0-0.705,0.122-1.063,0.366l-0.318-0.542
			c0.501-0.298,0.867-0.454,1.551-0.454c0.929,0,1.45,0.474,1.457,1.267l0.007,2.364h-0.766V11.072z M67.808,10.245V9.914h-0.976
			c-0.509,0-0.745,0.135-0.745,0.481c0,0.325,0.264,0.535,0.697,0.535C67.34,10.93,67.767,10.638,67.808,10.245z"/>
		<path class="st1" d="M72.59,8.47l-0.427,0.501c-0.25-0.257-0.596-0.414-1.029-0.407c-0.623,0-1.07,0.468-1.07,1.152
			s0.447,1.152,1.07,1.152c0.454,0,0.819-0.149,1.063-0.434l0.434,0.434c-0.325,0.427-0.847,0.671-1.531,0.671
			c-1.07,0-1.815-0.739-1.815-1.823c0-1.091,0.745-1.836,1.815-1.836C71.751,7.881,72.258,8.091,72.59,8.47z"/>
		<path class="st1" d="M74.283,6.879c0,0.271-0.196,0.467-0.454,0.467c-0.257,0-0.454-0.197-0.454-0.467
			c0-0.278,0.197-0.475,0.454-0.475C74.087,6.404,74.283,6.601,74.283,6.879z M73.443,11.512V7.908h0.772v3.604H73.443z"/>
		<path class="st1" d="M78.788,9.71c0,1.084-0.766,1.83-1.877,1.83c-1.117,0-1.883-0.746-1.883-1.83
			c0-1.091,0.766-1.829,1.883-1.829C78.022,7.881,78.788,8.619,78.788,9.71z M75.807,9.717c0,0.698,0.453,1.172,1.104,1.172
			c0.644,0,1.098-0.475,1.098-1.172c0-0.691-0.454-1.165-1.098-1.165C76.26,8.552,75.807,9.026,75.807,9.717z"/>
		<path class="st1" d="M83.048,9.27v2.243h-0.779V9.487c0-0.542-0.325-0.874-0.867-0.874c-0.596,0.006-0.969,0.42-1.023,0.982v1.917
			H79.6V7.908h0.778v0.691c0.258-0.501,0.719-0.718,1.328-0.718C82.547,7.881,83.048,8.409,83.048,9.27z"/>
	</g>
</g>
</svg>
