<?xml version="1.0" encoding="utf-8"?>
<!-- Generator: Adobe Illustrator 20.1.0, SVG Export Plug-In . SVG Version: 6.00 Build 0)  -->
<svg version="1.1" id="Layer_1" xmlns="http://www.w3.org/2000/svg" xmlns:xlink="http://www.w3.org/1999/xlink" x="0px" y="0px"
	 viewBox="0 0 100.2 36" style="enable-background:new 0 0 100.2 36;" xml:space="preserve">
<style type="text/css">
	.st0{fill:#4F7297;}
	.st1{fill:#FFFFFF;}
	.st2{fill:#81ACD8;}
</style>
<rect class="st0" width="100.2" height="36"/>
<circle class="st1" cx="50.1" cy="21.642" r="5.975"/>
<g>
	<path class="st2" d="M50.586,22.223v-1.322h0.875v1.322h0.811v0.836h-0.811v1.368h-0.875v-1.368h-2.658v-0.701l1.902-3.501h0.907
		l-1.807,3.367L50.586,22.223L50.586,22.223z"/>
</g>
<g>
	<g>
		<path class="st1" d="M26.32,10.076c-0.067,0.007-0.142,0.007-0.217,0.007h-1.124v1.43h-0.8V6.77h1.924
			c1.213,0,1.911,0.59,1.911,1.619c0,0.759-0.353,1.294-0.982,1.537l1.063,1.586h-0.908L26.32,10.076z M26.103,9.365
			c0.732,0,1.152-0.312,1.152-0.956c0-0.623-0.42-0.921-1.152-0.921h-1.124v1.877H26.103z"/>
		<path class="st1" d="M32.199,10.008h-2.723c0.121,0.556,0.549,0.9,1.117,0.9c0.394,0,0.752-0.148,1.017-0.42l0.413,0.441
			c-0.353,0.386-0.867,0.609-1.49,0.609c-1.111,0-1.843-0.738-1.843-1.822c0-1.092,0.752-1.83,1.822-1.836
			C31.779,7.882,32.294,8.708,32.199,10.008z M31.522,9.439c-0.027-0.583-0.413-0.935-1.003-0.935c-0.569,0-0.969,0.359-1.057,0.935
			H31.522z"/>
		<path class="st1" d="M35.979,8.47l-0.427,0.501c-0.25-0.257-0.596-0.413-1.029-0.406c-0.623,0-1.07,0.468-1.07,1.152
			c0,0.684,0.447,1.151,1.07,1.151c0.454,0,0.819-0.149,1.063-0.434l0.434,0.434c-0.325,0.427-0.847,0.671-1.531,0.671
			c-1.07,0-1.815-0.738-1.815-1.822c0-1.092,0.745-1.836,1.815-1.836C35.139,7.882,35.647,8.091,35.979,8.47z"/>
		<path class="st1" d="M37.671,6.879c0,0.271-0.196,0.468-0.454,0.468c-0.257,0-0.454-0.197-0.454-0.468
			c0-0.278,0.197-0.475,0.454-0.475C37.475,6.404,37.671,6.6,37.671,6.879z M36.831,11.512V7.908h0.772v3.604H36.831z"/>
		<path class="st1" d="M42.549,9.723c0,1.078-0.678,1.816-1.708,1.816c-0.575,0-1.009-0.23-1.273-0.65v0.623h-0.779V6.485h0.779
			v2.047c0.265-0.42,0.698-0.65,1.261-0.65C41.851,7.882,42.549,8.626,42.549,9.723z M41.763,9.697c0-0.671-0.454-1.165-1.098-1.165
			s-1.098,0.487-1.098,1.165c0,0.698,0.454,1.179,1.098,1.179S41.763,10.387,41.763,9.697z"/>
		<path class="st1" d="M46.782,9.71c0,1.084-0.766,1.83-1.877,1.83c-1.117,0-1.883-0.746-1.883-1.83c0-1.09,0.766-1.828,1.883-1.828
			C46.016,7.882,46.782,8.62,46.782,9.71z M43.801,9.717c0,0.697,0.453,1.172,1.104,1.172c0.644,0,1.098-0.475,1.098-1.172
			c0-0.691-0.454-1.166-1.098-1.166C44.254,8.551,43.801,9.026,43.801,9.717z"/>
		<path class="st1" d="M52.776,11.512h-0.779v-0.617c-0.257,0.421-0.69,0.651-1.267,0.651c-1.037,0-1.728-0.753-1.728-1.85
			c0-1.084,0.697-1.823,1.714-1.823c0.583,0,1.017,0.238,1.28,0.658V6.485h0.779V11.512z M51.996,9.723
			c0-0.697-0.454-1.186-1.104-1.186s-1.104,0.495-1.11,1.186c0.007,0.685,0.453,1.172,1.11,1.172
			C51.542,10.895,51.996,10.408,51.996,9.723z"/>
		<path class="st1" d="M57.13,10.008h-2.723c0.121,0.556,0.549,0.9,1.117,0.9c0.394,0,0.752-0.148,1.017-0.42l0.413,0.441
			c-0.353,0.386-0.867,0.609-1.49,0.609c-1.111,0-1.843-0.738-1.843-1.822c0-1.092,0.752-1.83,1.822-1.836
			C56.71,7.882,57.226,8.708,57.13,10.008z M56.454,9.439c-0.027-0.583-0.413-0.935-1.003-0.935c-0.569,0-0.969,0.359-1.057,0.935
			H56.454z"/>
		<path class="st1" d="M63.485,9.723c0,1.078-0.678,1.816-1.708,1.816c-0.575,0-1.009-0.23-1.273-0.65v1.938h-0.779V7.908h0.779
			v0.624c0.265-0.42,0.698-0.65,1.261-0.65C62.787,7.882,63.485,8.626,63.485,9.723z M62.699,9.697c0-0.671-0.454-1.165-1.098-1.165
			s-1.098,0.487-1.098,1.165c0,0.698,0.454,1.179,1.098,1.179S62.699,10.387,62.699,9.697z"/>
		<path class="st1" d="M66.457,11.072c-0.258,0.318-0.671,0.475-1.192,0.475c-0.779,0-1.268-0.481-1.268-1.118
			c0-0.657,0.495-1.077,1.362-1.084h1.091V9.236c0-0.454-0.291-0.726-0.86-0.726c-0.346,0-0.705,0.123-1.063,0.367l-0.318-0.543
			c0.501-0.298,0.867-0.453,1.551-0.453c0.929,0,1.45,0.474,1.457,1.267l0.007,2.364h-0.766V11.072z M66.451,10.245V9.914h-0.976
			c-0.509,0-0.745,0.136-0.745,0.481c0,0.324,0.264,0.535,0.697,0.535C65.983,10.93,66.41,10.638,66.451,10.245z"/>
		<path class="st1" d="M71.517,11.16c0,1.037-0.738,1.688-1.87,1.688c-0.562,0-1.057-0.177-1.497-0.475l0.332-0.562
			c0.339,0.251,0.69,0.394,1.131,0.394c0.685,0,1.132-0.4,1.132-1.023v-0.454c-0.244,0.394-0.65,0.61-1.192,0.61
			c-0.976,0-1.626-0.705-1.626-1.742c0-1.016,0.644-1.707,1.599-1.713c0.556-0.008,0.969,0.217,1.22,0.609V7.908h0.772V11.16z
			 M70.745,9.616c0-0.65-0.427-1.105-1.037-1.105c-0.616,0-1.043,0.461-1.05,1.105c0.007,0.65,0.427,1.11,1.05,1.11
			C70.318,10.726,70.745,10.266,70.745,9.616z"/>
		<path class="st1" d="M76.021,9.71c0,1.084-0.766,1.83-1.877,1.83c-1.117,0-1.883-0.746-1.883-1.83c0-1.09,0.766-1.828,1.883-1.828
			C75.255,7.882,76.021,8.62,76.021,9.71z M73.04,9.717c0,0.697,0.453,1.172,1.104,1.172c0.645,0,1.098-0.475,1.098-1.172
			c0-0.691-0.453-1.166-1.098-1.166C73.494,8.551,73.04,9.026,73.04,9.717z"/>
	</g>
</g>
</svg>
