<?xml version="1.0" encoding="utf-8"?>
<!-- Generator: Adobe Illustrator 20.1.0, SVG Export Plug-In . SVG Version: 6.00 Build 0)  -->
<svg version="1.1" id="Layer_1" xmlns="http://www.w3.org/2000/svg" xmlns:xlink="http://www.w3.org/1999/xlink" x="0px" y="0px"
	 viewBox="0 0 100.2 36" style="enable-background:new 0 0 100.2 36;" xml:space="preserve">
<style type="text/css">
	.st0{fill:#4F7297;}
	.st1{fill:#FFFFFF;}
	.st2{fill:#81ACD8;}
</style>
<rect class="st0" width="100.2" height="36"/>
<circle class="st1" cx="50.1" cy="22.2" r="6"/>
<g>
	<path class="st2" d="M51.9,20.8c0,0.6-0.4,1.2-1,1.8l-1.4,1.5h2.7V25h-4v-0.7l2.1-2.2c0.4-0.4,0.7-0.9,0.7-1.2
		c0-0.4-0.4-0.7-0.9-0.7s-1.1,0.3-1.5,0.7l-0.4-0.7c0.6-0.5,1.3-0.8,2-0.8C51.2,19.4,51.9,19.9,51.9,20.8z"/>
</g>
<g>
	<g>
		<path class="st1" d="M23.344,6.685c1.423,0,2.453,0.996,2.453,2.371c0,1.368-1.037,2.371-2.474,2.371H21.4V6.685H23.344z
			 M22.2,10.708h1.165c0.922,0,1.626-0.684,1.626-1.646c0-0.969-0.725-1.66-1.66-1.66H22.2V10.708z"/>
		<path class="st1" d="M29.772,9.923h-2.723c0.121,0.556,0.548,0.9,1.117,0.9c0.394,0,0.752-0.148,1.017-0.42l0.413,0.441
			c-0.353,0.386-0.867,0.609-1.49,0.609c-1.111,0-1.843-0.738-1.843-1.822c0-1.092,0.752-1.83,1.822-1.836
			C29.352,7.796,29.868,8.622,29.772,9.923z M29.095,9.354c-0.027-0.583-0.414-0.935-1.003-0.935c-0.569,0-0.969,0.359-1.057,0.935
			H29.095z"/>
		<path class="st1" d="M32.624,11.196c-0.284,0.17-0.583,0.265-0.888,0.265c-0.542,0-1.01-0.312-1.01-1.05V8.54h-0.508V7.958h0.508
			V6.969h0.772v0.989h1.063V8.54h-1.063v1.729c0,0.372,0.143,0.487,0.387,0.487c0.162,0,0.332-0.054,0.542-0.155L32.624,11.196z"/>
		<path class="st1" d="M35.503,10.986c-0.258,0.318-0.671,0.475-1.192,0.475c-0.779,0-1.268-0.481-1.268-1.118
			c0-0.657,0.495-1.077,1.362-1.084h1.091V9.15c0-0.454-0.291-0.725-0.86-0.725c-0.346,0-0.705,0.123-1.063,0.367L33.254,8.25
			c0.501-0.298,0.867-0.454,1.551-0.454c0.929,0,1.45,0.474,1.457,1.267l0.007,2.364h-0.766V10.986z M35.496,10.159V9.828H34.52
			c-0.509,0-0.745,0.136-0.745,0.481c0,0.324,0.264,0.535,0.697,0.535C35.028,10.845,35.455,10.553,35.496,10.159z"/>
		<path class="st1" d="M37.343,11.427V6.4h0.779v5.027H37.343z"/>
		<path class="st1" d="M39.341,11.427V6.4h0.779v5.027H39.341z"/>
		<path class="st1" d="M44.476,9.923h-2.723c0.121,0.556,0.549,0.9,1.117,0.9c0.394,0,0.752-0.148,1.017-0.42l0.413,0.441
			c-0.353,0.386-0.867,0.609-1.49,0.609c-1.111,0-1.843-0.738-1.843-1.822c0-1.092,0.752-1.83,1.822-1.836
			C44.056,7.796,44.572,8.622,44.476,9.923z M43.799,9.354c-0.027-0.583-0.413-0.935-1.003-0.935c-0.569,0-0.969,0.359-1.057,0.935
			H43.799z"/>
		<path class="st1" d="M47.626,8.154l-0.284,0.576c-0.318-0.196-0.719-0.318-1.037-0.318c-0.305,0-0.528,0.102-0.528,0.358
			c0,0.664,1.917,0.305,1.911,1.613c0,0.738-0.657,1.07-1.383,1.07c-0.528,0-1.091-0.176-1.449-0.502l0.277-0.555
			c0.312,0.277,0.813,0.447,1.206,0.447c0.332,0,0.59-0.115,0.59-0.387c0-0.738-1.897-0.325-1.891-1.626
			c0-0.732,0.637-1.043,1.328-1.043C46.82,7.789,47.3,7.924,47.626,8.154z"/>
		<path class="st1" d="M53.655,11.427h-0.779V10.81c-0.257,0.421-0.69,0.651-1.267,0.651c-1.037,0-1.728-0.753-1.728-1.85
			c0-1.084,0.697-1.823,1.714-1.823c0.583,0,1.017,0.237,1.28,0.658V6.4h0.779V11.427z M52.876,9.638
			c0-0.697-0.454-1.186-1.104-1.186s-1.104,0.495-1.11,1.186c0.007,0.685,0.453,1.172,1.11,1.172
			C52.421,10.81,52.876,10.322,52.876,9.638z"/>
		<path class="st1" d="M58.009,9.923h-2.723c0.121,0.556,0.549,0.9,1.117,0.9c0.394,0,0.752-0.148,1.017-0.42l0.413,0.441
			c-0.353,0.386-0.867,0.609-1.49,0.609c-1.111,0-1.843-0.738-1.843-1.822c0-1.092,0.752-1.83,1.822-1.836
			C57.589,7.796,58.105,8.622,58.009,9.923z M57.333,9.354c-0.027-0.583-0.413-0.935-1.003-0.935c-0.569,0-0.969,0.359-1.057,0.935
			H57.333z"/>
		<path class="st1" d="M58.855,11.427V6.4h0.779v5.027H58.855z"/>
		<path class="st1" d="M66.361,9.638c0,1.078-0.678,1.816-1.708,1.816c-0.575,0-1.009-0.23-1.273-0.65v1.938H62.6V7.822h0.779v0.624
			c0.265-0.42,0.698-0.651,1.261-0.651C65.663,7.796,66.361,8.54,66.361,9.638z M65.575,9.611c0-0.671-0.454-1.165-1.098-1.165
			s-1.098,0.487-1.098,1.165c0,0.698,0.454,1.179,1.098,1.179S65.575,10.302,65.575,9.611z"/>
		<path class="st1" d="M69.334,10.986c-0.258,0.318-0.671,0.475-1.192,0.475c-0.779,0-1.268-0.481-1.268-1.118
			c0-0.657,0.495-1.077,1.362-1.084h1.091V9.15c0-0.454-0.292-0.725-0.86-0.725c-0.346,0-0.705,0.123-1.063,0.367L67.084,8.25
			c0.502-0.298,0.867-0.454,1.552-0.454c0.929,0,1.45,0.474,1.457,1.267l0.007,2.364h-0.766V10.986z M69.327,10.159V9.828h-0.976
			c-0.508,0-0.745,0.136-0.745,0.481c0,0.324,0.264,0.535,0.697,0.535C68.859,10.845,69.286,10.553,69.327,10.159z"/>
		<path class="st1" d="M74.394,11.074c0,1.037-0.738,1.688-1.87,1.688c-0.562,0-1.057-0.177-1.497-0.475l0.332-0.562
			c0.339,0.251,0.69,0.394,1.131,0.394c0.685,0,1.132-0.4,1.132-1.023v-0.454c-0.244,0.394-0.65,0.61-1.192,0.61
			c-0.976,0-1.626-0.705-1.626-1.742c0-1.016,0.644-1.707,1.599-1.713c0.556-0.007,0.969,0.217,1.22,0.61V7.822h0.772V11.074z
			 M73.622,9.53c0-0.65-0.427-1.105-1.037-1.105c-0.616,0-1.043,0.46-1.05,1.105c0.007,0.65,0.427,1.11,1.05,1.11
			C73.195,10.641,73.622,10.181,73.622,9.53z"/>
		<path class="st1" d="M78.897,9.624c0,1.084-0.766,1.83-1.877,1.83c-1.117,0-1.883-0.746-1.883-1.83
			c0-1.09,0.766-1.829,1.883-1.829C78.131,7.796,78.897,8.534,78.897,9.624z M75.917,9.632c0,0.697,0.453,1.172,1.104,1.172
			c0.644,0,1.098-0.475,1.098-1.172c0-0.691-0.454-1.166-1.098-1.166C76.37,8.466,75.917,8.941,75.917,9.632z"/>
	</g>
</g>
</svg>
