<?xml version="1.0" encoding="utf-8"?>
<!-- Generator: Adobe Illustrator 20.1.0, SVG Export Plug-In . SVG Version: 6.00 Build 0)  -->
<svg version="1.1" id="Layer_1" xmlns="http://www.w3.org/2000/svg" xmlns:xlink="http://www.w3.org/1999/xlink" x="0px" y="0px"
	 viewBox="0 0 100.2 48.499" style="enable-background:new 0 0 100.2 48.499;" xml:space="preserve">
<style type="text/css">
	.st0{fill:#82ADD7;}
	.st1{fill:#FFFFFF;}
	.st2{fill:#81ACD8;}
</style>
<path class="st0" d="M100.2,0H50.1l0,0H0c0,0,0.2,36.099,0,35.999l50.1,12.5l0,0l0,0l0,0l0,0l50.1-12.5
	C100.1,36.099,100.2,0,100.2,0z"/>
<circle class="st1" cx="50.1" cy="21.642" r="5.975"/>
<g>
	<path class="st2" d="M50.175,24.427v-4.735h-1.09v-0.836h2.03v5.57L50.175,24.427L50.175,24.427z"/>
</g>
<g>
	<g>
		<path class="st1" d="M22.213,7.231l-0.332,0.705c-0.516-0.312-1.03-0.44-1.39-0.44c-0.467,0-0.771,0.176-0.771,0.495
			c0,1.037,2.561,0.481,2.554,2.188c0,0.847-0.745,1.369-1.789,1.369c-0.745,0-1.449-0.305-1.938-0.752l0.346-0.691
			c0.488,0.447,1.098,0.691,1.605,0.691c0.556,0,0.888-0.21,0.888-0.576c0-1.057-2.561-0.467-2.561-2.154
			c0-0.813,0.697-1.321,1.728-1.321C21.169,6.743,21.773,6.94,22.213,7.231z"/>
		<path class="st1" d="M26.33,10.016h-2.723c0.121,0.556,0.549,0.901,1.117,0.901c0.394,0,0.752-0.149,1.017-0.42l0.413,0.44
			c-0.353,0.386-0.867,0.61-1.49,0.61c-1.111,0-1.843-0.739-1.843-1.823c0-1.091,0.752-1.829,1.822-1.836
			C25.91,7.888,26.426,8.715,26.33,10.016z M25.653,9.446c-0.027-0.583-0.413-0.935-1.003-0.935c-0.569,0-0.969,0.359-1.057,0.935
			H25.653z"/>
		<path class="st1" d="M27.176,11.52V6.493h0.779v5.027H27.176z"/>
		<path class="st1" d="M32.311,10.016h-2.723c0.121,0.556,0.549,0.901,1.117,0.901c0.394,0,0.752-0.149,1.017-0.42l0.413,0.44
			c-0.353,0.386-0.867,0.61-1.49,0.61c-1.111,0-1.843-0.739-1.843-1.823c0-1.091,0.752-1.829,1.822-1.836
			C31.891,7.888,32.406,8.715,32.311,10.016z M31.634,9.446c-0.027-0.583-0.413-0.935-1.003-0.935c-0.569,0-0.969,0.359-1.057,0.935
			H31.634z"/>
		<path class="st1" d="M36.09,8.478l-0.427,0.501c-0.25-0.257-0.596-0.414-1.029-0.407c-0.624,0-1.07,0.468-1.07,1.152
			s0.446,1.152,1.07,1.152c0.454,0,0.819-0.149,1.063-0.434l0.434,0.434c-0.325,0.427-0.847,0.671-1.531,0.671
			c-1.07,0-1.815-0.739-1.815-1.823c0-1.091,0.745-1.836,1.815-1.836C35.25,7.888,35.758,8.098,36.09,8.478z"/>
		<path class="st1" d="M39.768,8.478l-0.427,0.501c-0.25-0.257-0.596-0.414-1.029-0.407c-0.624,0-1.07,0.468-1.07,1.152
			s0.446,1.152,1.07,1.152c0.454,0,0.819-0.149,1.063-0.434l0.434,0.434c-0.325,0.427-0.847,0.671-1.531,0.671
			c-1.07,0-1.815-0.739-1.815-1.823c0-1.091,0.745-1.836,1.815-1.836C38.928,7.888,39.436,8.098,39.768,8.478z"/>
		<path class="st1" d="M41.461,6.886c0,0.271-0.196,0.467-0.454,0.467c-0.257,0-0.454-0.197-0.454-0.467
			c0-0.278,0.197-0.475,0.454-0.475C41.265,6.411,41.461,6.608,41.461,6.886z M40.621,11.52V7.915h0.772v3.604H40.621z"/>
		<path class="st1" d="M45.966,9.717c0,1.084-0.766,1.83-1.877,1.83c-1.117,0-1.883-0.746-1.883-1.83
			c0-1.091,0.766-1.829,1.883-1.829C45.2,7.888,45.966,8.627,45.966,9.717z M42.985,9.724c0,0.698,0.453,1.172,1.104,1.172
			c0.644,0,1.098-0.475,1.098-1.172c0-0.691-0.454-1.165-1.098-1.165C43.439,8.559,42.985,9.033,42.985,9.724z"/>
		<path class="st1" d="M50.226,9.277v2.243h-0.779V9.494c0-0.542-0.325-0.874-0.867-0.874c-0.596,0.006-0.969,0.42-1.023,0.982
			v1.917h-0.779V7.915h0.779v0.691c0.257-0.501,0.718-0.718,1.328-0.718C49.725,7.888,50.226,8.417,50.226,9.277z"/>
		<path class="st1" d="M54.439,10.016h-2.723c0.121,0.556,0.548,0.901,1.117,0.901c0.394,0,0.752-0.149,1.017-0.42l0.413,0.44
			c-0.353,0.386-0.867,0.61-1.49,0.61c-1.111,0-1.843-0.739-1.843-1.823c0-1.091,0.752-1.829,1.822-1.836
			C54.019,7.888,54.535,8.715,54.439,10.016z M53.762,9.446c-0.027-0.583-0.414-0.935-1.003-0.935c-0.569,0-0.969,0.359-1.057,0.935
			H53.762z"/>
		<path class="st1" d="M59.336,8.247l-0.284,0.576c-0.318-0.197-0.719-0.318-1.037-0.318c-0.305,0-0.528,0.102-0.528,0.359
			c0,0.664,1.917,0.305,1.911,1.612c0,0.739-0.657,1.071-1.383,1.071c-0.528,0-1.091-0.176-1.449-0.501l0.277-0.556
			c0.312,0.278,0.813,0.447,1.206,0.447c0.332,0,0.59-0.115,0.59-0.386c0-0.738-1.897-0.325-1.891-1.626
			c0-0.732,0.637-1.043,1.328-1.043C58.53,7.881,59.01,8.017,59.336,8.247z"/>
		<path class="st1" d="M63.352,10.016H60.63c0.121,0.556,0.549,0.901,1.117,0.901c0.394,0,0.752-0.149,1.017-0.42l0.413,0.44
			c-0.353,0.386-0.867,0.61-1.49,0.61c-1.111,0-1.843-0.739-1.843-1.823c0-1.091,0.752-1.829,1.822-1.836
			C62.932,7.888,63.448,8.715,63.352,10.016z M62.675,9.446c-0.027-0.583-0.413-0.935-1.003-0.935c-0.569,0-0.969,0.359-1.057,0.935
			H62.675z"/>
		<path class="st1" d="M64.944,8.633c0.243-0.488,0.677-0.745,1.246-0.745v0.745c-0.725-0.041-1.186,0.386-1.246,1.003v1.883h-0.779
			V7.915h0.779V8.633z"/>
		<path class="st1" d="M67.836,11.52L66.44,7.915h0.812l1.003,2.839l0.989-2.839h0.779l-1.382,3.604H67.836z"/>
		<path class="st1" d="M71.405,6.886c0,0.271-0.196,0.467-0.454,0.467c-0.257,0-0.454-0.197-0.454-0.467
			c0-0.278,0.197-0.475,0.454-0.475C71.209,6.411,71.405,6.608,71.405,6.886z M70.565,11.52V7.915h0.772v3.604H70.565z"/>
		<path class="st1" d="M75.456,8.478l-0.427,0.501C74.779,8.722,74.433,8.566,74,8.572c-0.624,0-1.07,0.468-1.07,1.152
			s0.446,1.152,1.07,1.152c0.454,0,0.819-0.149,1.063-0.434l0.434,0.434c-0.325,0.427-0.847,0.671-1.531,0.671
			c-1.07,0-1.815-0.739-1.815-1.823c0-1.091,0.745-1.836,1.815-1.836C74.616,7.888,75.124,8.098,75.456,8.478z"/>
		<path class="st1" d="M77.148,6.886c0,0.271-0.196,0.467-0.454,0.467S76.24,7.156,76.24,6.886c0-0.278,0.196-0.475,0.454-0.475
			S77.148,6.608,77.148,6.886z M76.308,11.52V7.915h0.772v3.604H76.308z"/>
		<path class="st1" d="M81.653,9.717c0,1.084-0.766,1.83-1.877,1.83c-1.117,0-1.883-0.746-1.883-1.83
			c0-1.091,0.766-1.829,1.883-1.829C80.887,7.888,81.653,8.627,81.653,9.717z M78.673,9.724c0,0.698,0.453,1.172,1.104,1.172
			c0.645,0,1.098-0.475,1.098-1.172c0-0.691-0.453-1.165-1.098-1.165C79.126,8.559,78.673,9.033,78.673,9.724z"/>
	</g>
</g>
</svg>
