<?xml version="1.0" encoding="utf-8"?>
<!-- Generator: Adobe Illustrator 20.1.0, SVG Export Plug-In . SVG Version: 6.00 Build 0)  -->
<svg version="1.1" id="Layer_1" xmlns="http://www.w3.org/2000/svg" xmlns:xlink="http://www.w3.org/1999/xlink" x="0px" y="0px"
	 viewBox="0 0 22.527 134.894" style="enable-background:new 0 0 22.527 134.894;" xml:space="preserve">
<style type="text/css">
	.st0{fill:none;stroke:#C4C6C8;stroke-miterlimit:10;}
</style>
<line class="st0" x1="11.264" y1="75.181" x2="11.264" y2="134.894"/>
<line class="st0" x1="11.264" y1="0" x2="11.264" y2="58.931"/>
<g>
	<path d="M1.922,68.695l-0.841,2.547H0l2.752-8.099h1.262l2.763,8.099H5.66l-0.865-2.547H1.922z M4.579,67.878l-0.793-2.331
		c-0.18-0.529-0.301-1.01-0.421-1.478H3.341c-0.12,0.481-0.253,0.973-0.409,1.466l-0.793,2.344H4.579z"/>
	<path d="M7.971,71.242v-8.099h1.141l2.596,4.098c0.601,0.949,1.069,1.802,1.454,2.632l0.024-0.013
		c-0.096-1.081-0.12-2.067-0.12-3.329v-3.388h0.985v8.099h-1.058l-2.571-4.109c-0.565-0.901-1.106-1.827-1.515-2.704l-0.035,0.013
		c0.06,1.022,0.084,1.993,0.084,3.34v3.46H7.971z"/>
	<path d="M15.882,63.251c0.637-0.095,1.394-0.167,2.223-0.167c1.502,0,2.571,0.348,3.28,1.009c0.721,0.661,1.141,1.598,1.141,2.909
		c0,1.321-0.409,2.402-1.166,3.147c-0.757,0.758-2.007,1.166-3.581,1.166c-0.745,0-1.369-0.037-1.898-0.096V63.251z M16.928,70.414
		c0.264,0.048,0.648,0.06,1.057,0.06c2.235,0,3.448-1.25,3.448-3.436c0.012-1.911-1.069-3.124-3.28-3.124
		c-0.541,0-0.949,0.048-1.225,0.108V70.414z"/>
</g>
</svg>
