<?xml version="1.0" encoding="utf-8"?>
<!-- Generator: Adobe Illustrator 20.1.0, SVG Export Plug-In . SVG Version: 6.00 Build 0)  -->
<svg version="1.1" id="Layer_1" xmlns="http://www.w3.org/2000/svg" xmlns:xlink="http://www.w3.org/1999/xlink" x="0px" y="0px"
	 viewBox="0 0 452.559 11.814" style="enable-background:new 0 0 452.559 11.814;" xml:space="preserve">
<style type="text/css">
	.st0{fill:none;stroke:#C4C6C8;stroke-miterlimit:10;}
	.st1{stroke:#000000;stroke-width:0.5;stroke-miterlimit:10;}
</style>
<line class="st0" x1="0" y1="5.907" x2="204.625" y2="5.907"/>
<line class="st0" x1="247.934" y1="5.907" x2="452.559" y2="5.907"/>
<g>
	<path class="st1" d="M214.39,7.963l-1.156,3.501h-1.487l3.783-11.132h1.735l3.798,11.132h-1.536l-1.19-3.501H214.39z M218.041,6.84
		l-1.09-3.204c-0.248-0.727-0.413-1.389-0.578-2.032h-0.033c-0.165,0.661-0.347,1.338-0.562,2.015l-1.09,3.222H218.041z"/>
	<path class="st1" d="M222.704,11.464V0.332h1.569l3.568,5.632c0.826,1.305,1.47,2.477,1.998,3.618l0.033-0.018
		c-0.132-1.486-0.165-2.842-0.165-4.575V0.332h1.354v11.132h-1.454l-3.534-5.648c-0.777-1.238-1.52-2.512-2.082-3.717l-0.049,0.018
		c0.082,1.404,0.115,2.74,0.115,4.591v4.757H222.704z"/>
	<path class="st1" d="M233.579,0.48c0.876-0.131,1.916-0.23,3.056-0.23c2.064,0,3.534,0.478,4.509,1.387
		c0.991,0.909,1.569,2.196,1.569,3.998c0,1.816-0.562,3.302-1.602,4.326c-1.04,1.041-2.759,1.603-4.923,1.603
		c-1.024,0-1.882-0.051-2.609-0.133V0.48z M235.017,10.325c0.363,0.066,0.891,0.082,1.453,0.082c3.073,0,4.74-1.718,4.74-4.724
		c0.017-2.627-1.47-4.295-4.509-4.295c-0.743,0-1.305,0.066-1.684,0.148V10.325z"/>
</g>
</svg>
