<?xml version="1.0" encoding="utf-8"?>
<!-- Generator: Adobe Illustrator 20.1.0, SVG Export Plug-In . SVG Version: 6.00 Build 0)  -->
<svg version="1.1" id="Layer_1" xmlns="http://www.w3.org/2000/svg" xmlns:xlink="http://www.w3.org/1999/xlink" x="0px" y="0px"
	 viewBox="0 0 187 228.6" style="enable-background:new 0 0 187 228.6;" xml:space="preserve">
<style type="text/css">
	.st0{fill:#9A9A9A;}
</style>
<g>
	<path class="st0" d="M86.246,172.507c-9.337-0.462-16.973-2.521-22.908-6.181c-5.936-3.659-8.904-7.938-8.904-12.837
		c0-2.478,0.835-4.739,2.507-6.786c1.671-2.045,4.12-3.068,7.348-3.068c4.552,0,8.039,2.623,10.46,7.866
		c2.938,6.341,6.771,9.971,11.497,10.892v-39.332c-12.737-5.416-21.036-11.121-24.896-17.116
		c-3.861-5.993-5.792-12.044-5.792-18.153c0-7.376,2.563-14.119,7.693-20.228c5.128-6.108,12.793-9.825,22.995-11.151V34h9.94v21.98
		c8.414,0,15.906,2.19,22.476,6.569c6.569,4.38,9.854,9.336,9.854,14.869c0,2.766-0.966,5.1-2.896,7.002
		c-1.932,1.902-4.106,2.853-6.526,2.853c-4.784,0-8.616-4.033-11.497-12.102c-1.902-5.417-5.706-8.645-11.411-9.682v32.762
		c14.579,5.994,24.305,12.016,29.175,18.067c4.869,6.051,7.305,12.88,7.305,20.487c0,8.587-3.112,16.251-9.336,22.994
		c-6.224,6.742-15.272,10.862-27.144,12.361v21.179h-9.94V172.507z M86.246,94.016V65.662c-7.724,1.672-11.584,6.051-11.584,13.139
		C74.662,85.371,78.522,90.443,86.246,94.016z M96.187,127.815v34.751c4.783-0.692,8.63-2.435,11.54-5.23
		c2.91-2.795,4.366-6.41,4.366-10.849c0-3.169-0.865-6.151-2.594-8.947C107.771,134.746,103.332,131.504,96.187,127.815z"/>
</g>
</svg>
