<?xml version="1.0" encoding="utf-8"?>
<!-- Generator: Adobe Illustrator 19.2.1, SVG Export Plug-In . SVG Version: 6.00 Build 0)  -->
<svg version="1.1" id="Layer_1" xmlns="http://www.w3.org/2000/svg" xmlns:xlink="http://www.w3.org/1999/xlink" x="0px" y="0px"
	 viewBox="0 0 187 228.6" style="enable-background:new 0 0 187 228.6;" xml:space="preserve">
<style type="text/css">
	.st0{fill:#9A9A9A;}
</style>
<g id="acShml_1_">
	<g>
		<path class="st0" d="M48.3,118.4c0-0.3,0-0.5,0-0.7c0-7-0.1-13.9,0-20.9c0.2-10.1,3.4-19.2,9.6-27.1c4.7-6,10.4-10.9,17.4-14.2
			c3.9-1.9,8-3.1,12.3-3.8c3.9-0.6,7.9-0.8,11.9-0.4c9.7,0.8,18.3,4.3,25.7,10.6c4.8,4,8.8,8.7,11.8,14.2c2.6,4.6,4.2,9.6,5,14.8
			c0.4,2.6,0.6,5.3,0.6,8c0,6.3,0,12.7,0,19c0,0.2,0,0.4,0,0.6c1,0,2,0,3,0c1.3,0,2.5,0.1,3.7,0.6c3.9,1.5,6.1,4.3,6.6,8.5
			c0.1,0.5,0.1,1.1,0.1,1.6c0,19.9,0,39.9,0,59.8c0,4-1.8,7-5.2,9.1c-1.4,0.8-2.9,1.2-4.4,1.2c-0.2,0-0.4,0-0.6,0
			c-33.5,0-67.1,0-100.6,0c-4.4,0-7.5-2.1-9.4-6c-0.6-1.2-0.8-2.4-0.8-3.7c0-20.3,0-40.6,0-60.9c0-0.9,0.1-1.7,0.3-2.6
			c0.9-3.9,4.5-7,8.4-7.4c0.8-0.1,1.7-0.1,2.5-0.1C46.8,118.4,47.5,118.4,48.3,118.4z M122.3,118.4c0-0.2,0-0.3,0-0.5
			c0-6.6,0-13.2,0-19.8c0-1.9-0.2-3.7-0.5-5.6c-1-5.1-3.5-9.5-7.2-13.2c-3.1-3.1-6.7-5.5-10.9-6.8c-3.3-1-6.6-1.4-10-1.2
			c-3.1,0.2-6.1,0.8-8.9,2.1c-7.9,3.4-16.4,12-16.3,25c0.1,6.5,0,12.9,0,19.4c0,0.2,0,0.4,0,0.6C86.5,118.4,104.4,118.4,122.3,118.4
			z M89.3,157.4C89.3,157.4,89.3,157.5,89.3,157.4c-2.4,8-4.8,15.9-7.2,23.8c-0.7,2.3,1.2,4.4,3.3,4.4c6.7,0,13.4,0,20.1,0
			c2.1,0,4-2.2,3.3-4.4c-2.4-7.8-4.7-15.7-7.1-23.5c-0.1-0.4-0.1-0.5,0.3-0.7c5.3-3.1,7.8-8.5,6.7-14.5c-1.1-6-7.3-12-15.8-10.5
			c-5.4,1-10.4,6-10.8,12c-0.3,4.3,1,7.9,4,10.9C87,155.8,88.2,156.6,89.3,157.4z"/>
	</g>
</g>
</svg>
