<?xml version="1.0" encoding="utf-8"?>
<!-- Generator: Adobe Illustrator 20.1.0, SVG Export Plug-In . SVG Version: 6.00 Build 0)  -->
<svg version="1.1" id="Layer_1" xmlns="http://www.w3.org/2000/svg" xmlns:xlink="http://www.w3.org/1999/xlink" x="0px" y="0px"
	 viewBox="0 0 160.25 37" style="enable-background:new 0 0 160.25 37;" xml:space="preserve">
<style type="text/css">
	.st0{fill:#514585;}
	.st1{fill:#66C082;}
	.st2{fill:#504584;}
</style>
<g>
	<g>
		<path class="st0" d="M97.431,21.816h0.835c0.599,0,0.992,0.252,0.992,0.788s-0.41,0.788-1.008,0.788h-0.52v1.371h-0.299
			L97.431,21.816L97.431,21.816z M97.73,23.139h0.504c0.473,0,0.725-0.189,0.725-0.536c0-0.362-0.268-0.536-0.725-0.536H97.73
			V23.139z"/>
		<path class="st0" d="M101.101,24.762h-0.331l1.276-2.946h0.284l1.26,2.946h-0.331l-0.331-0.772H101.4L101.101,24.762z
			 M101.526,23.707h1.292l-0.646-1.56L101.526,23.707z"/>
		<path class="st0" d="M106.316,24.762h-0.299v-1.276l-1.103-1.67h0.378l0.882,1.434l0.898-1.434h0.347l-1.103,1.67
			C106.316,23.486,106.316,24.762,106.316,24.762z"/>
		<path class="st0" d="M110.538,24.242L110.538,24.242l0.992-2.442h0.457v2.946h-0.299v-2.552h-0.016l-1.071,2.552h-0.158
			l-1.071-2.552h-0.016v2.552h-0.299V21.8h0.457L110.538,24.242z"/>
		<path class="st0" d="M114.334,24.494h1.575v0.268h-1.875v-2.946h1.827v0.268h-1.528v1.008h1.434v0.268h-1.434L114.334,24.494
			L114.334,24.494z"/>
		<path class="st0" d="M119.864,24.321L119.864,24.321l0.016-2.505h0.299v2.946h-0.378l-1.717-2.536h-0.016v2.536h-0.299v-2.946
			h0.378L119.864,24.321z"/>
		<path class="st0" d="M123.172,24.762h-0.299v-2.678h-0.992v-0.268h2.269v0.268h-0.977L123.172,24.762L123.172,24.762z"/>
		<path class="st0" d="M129.615,22.289c-0.126-0.173-0.331-0.299-0.614-0.299c-0.284,0-0.63,0.173-0.63,0.551
			s0.315,0.473,0.646,0.583c0.41,0.142,0.866,0.268,0.866,0.866s-0.488,0.851-0.961,0.851c-0.362,0-0.709-0.142-0.929-0.441
			l0.252-0.189c0.126,0.205,0.362,0.378,0.677,0.378c0.299,0,0.646-0.189,0.646-0.567c0-0.41-0.347-0.52-0.725-0.63
			c-0.394-0.126-0.788-0.284-0.788-0.819c0-0.567,0.504-0.803,0.945-0.803c0.394,0,0.693,0.173,0.835,0.362L129.615,22.289z"/>
		<path class="st0" d="M132.813,24.762h-0.299v-1.276l-1.103-1.67h0.378l0.882,1.434l0.898-1.434h0.347l-1.103,1.67L132.813,24.762
			L132.813,24.762z"/>
		<path class="st0" d="M137.019,22.289c-0.126-0.173-0.331-0.299-0.614-0.299c-0.284,0-0.63,0.173-0.63,0.551
			s0.315,0.473,0.646,0.583c0.41,0.142,0.866,0.268,0.866,0.866s-0.488,0.851-0.961,0.851c-0.362,0-0.709-0.142-0.929-0.441
			l0.252-0.189c0.126,0.205,0.362,0.378,0.677,0.378c0.299,0,0.646-0.189,0.646-0.567c0-0.41-0.347-0.52-0.725-0.63
			c-0.394-0.126-0.788-0.284-0.788-0.819c0-0.567,0.504-0.803,0.945-0.803c0.394,0,0.693,0.173,0.835,0.362L137.019,22.289z"/>
		<path class="st0" d="M140.154,24.762h-0.299v-2.678h-0.992v-0.268h2.269v0.268h-0.992v2.678H140.154z"/>
		<path class="st0" d="M143.148,24.494h1.575v0.268h-1.875v-2.946h1.827v0.268h-1.528v1.008h1.434v0.268h-1.434v1.134
			C143.147,24.494,143.148,24.494,143.148,24.494z"/>
		<path class="st0" d="M148.047,24.242L148.047,24.242l0.992-2.442h0.457v2.946h-0.299v-2.552h-0.016l-1.071,2.552h-0.158
			l-1.071-2.552h-0.016v2.552h-0.299V21.8h0.457L148.047,24.242z"/>
		<path class="st0" d="M152.978,22.289c-0.126-0.173-0.331-0.299-0.614-0.299c-0.284,0-0.63,0.173-0.63,0.551
			s0.315,0.473,0.646,0.583c0.41,0.142,0.866,0.268,0.866,0.866s-0.488,0.851-0.961,0.851c-0.362,0-0.709-0.142-0.929-0.441
			l0.252-0.189c0.126,0.205,0.362,0.378,0.677,0.378c0.299,0,0.646-0.189,0.646-0.567c0-0.41-0.347-0.52-0.725-0.63
			c-0.394-0.126-0.788-0.284-0.788-0.819c0-0.567,0.504-0.803,0.945-0.803c0.394,0,0.693,0.173,0.835,0.362L152.978,22.289z"/>
	</g>
	<g>
		<g>
			<path class="st1" d="M78.589,2.612L78.589,2.612c0.693,1.087,6.632,10.429,8.381,14.478c0.961-3.356,0.646-7.073-1.213-10.334
				c-1.89-3.356-4.994-5.577-8.46-6.427c-1.055,3.403-0.74,7.215,1.15,10.571c1.859,3.261,4.868,5.451,8.223,6.349
				C84.119,13.64,79.156,3.747,78.589,2.612z"/>
		</g>
		<g>
			<path class="st0" d="M94.689,4.156c-2.584,0.614-5.136,2.3-6.648,4.884c-0.126,0.205-0.221,0.41-0.331,0.614
				c0.457,1.56,0.599,3.166,0.488,4.742c1.938-3.324,4.584-7.325,4.978-7.94L93.16,6.472c-0.378,0.709-3.056,5.86-5.136,9.247
				c-0.079,0.441-0.173,0.882-0.299,1.308c2.41-0.725,4.584-2.332,5.955-4.695C95.178,9.765,95.461,6.803,94.689,4.156z"/>
		</g>
	</g>
	<g>
		<path class="st1" d="M104.866,17.232h-2.095l-5.34-13.091h2.127l4.253,11.075h0.063l4.285-11.075h2.048L104.866,17.232z"/>
		<path class="st1" d="M119.139,8.788c0-2.269-1.229-3.387-3.497-3.387c-1.544,0-2.962,0.614-3.891,1.544l-1.055-1.26
			c1.055-1.055,2.914-1.875,5.151-1.875c2.82,0,5.088,1.56,5.088,4.758v5.734c0,1.008,0.079,2.206,0.221,2.93h-1.701
			c-0.11-0.646-0.189-1.434-0.189-2.127h-0.063c-1.197,1.733-2.662,2.458-4.758,2.458c-1.985,0-4.537-1.055-4.537-3.97
			c0-4.033,4.443-4.395,9.232-4.395L119.139,8.788L119.139,8.788z M118.572,10.694c-3.103,0-6.711,0.331-6.711,2.82
			c0,1.875,1.591,2.489,3.072,2.489c2.678,0,4.19-2.016,4.19-4.332v-0.977H118.572z"/>
		<path class="st1" d="M137.051,17.232c-0.063-0.693-0.11-1.67-0.11-2.237h-0.063c-0.725,1.512-2.631,2.568-4.474,2.568
			c-3.324,0-4.978-2.158-4.978-5.403V4.156h1.906v7.247c0,2.741,0.803,4.584,3.545,4.584c2.016,0,3.97-1.623,3.97-5.12V4.156h1.906
			v10.208c0,0.693,0.032,1.985,0.11,2.883h-1.812L137.051,17.232L137.051,17.232z"/>
		<path class="st1" d="M153.214,11.198H142.36c0.063,2.631,2.095,4.758,4.773,4.758c1.953,0,3.466-1.087,4.19-2.269l1.434,1.119
			c-1.544,1.953-3.466,2.773-5.624,2.773c-3.891,0-6.774-2.93-6.774-6.884c0-3.938,2.883-6.884,6.601-6.884
			c4.112,0,6.27,2.914,6.27,6.49C153.246,10.552,153.246,10.867,153.214,11.198z M151.324,9.686
			c-0.11-2.458-1.623-4.285-4.332-4.285c-2.536,0-4.411,2.048-4.584,4.285H151.324z"/>
		<polygon class="st1" points="123.219,1.888 123.219,17.232 125.125,17.232 125.125,1.573 		"/>
	</g>
</g>
<g>
	<path class="st2" d="M8.222,10.766h1.579c1.107,0,1.825,0.39,1.825,1.401c0,1.067-0.854,1.436-1.88,1.436H9.083v2.003H8.222V10.766
		z M9.685,12.878c0.561,0,1.073-0.137,1.073-0.711s-0.513-0.677-1.046-0.677H9.083v1.388H9.685z"/>
	<path class="st2" d="M16.298,10.643c1.511,0,2.611,0.978,2.611,2.529c0,1.511-1.101,2.557-2.611,2.557
		c-1.49,0-2.591-1.046-2.591-2.557C13.707,11.62,14.808,10.643,16.298,10.643z M16.305,14.957c0.991,0,1.668-0.752,1.668-1.785
		c0-0.998-0.663-1.771-1.668-1.771c-0.998,0-1.661,0.772-1.661,1.771C14.644,14.205,15.32,14.957,16.305,14.957z"/>
	<path class="st2" d="M20.801,10.766h0.943l0.937,3.555h0.014l1.066-3.555h0.889l1.046,3.555h0.014l0.957-3.555h0.916l-1.415,4.84
		h-0.834l-1.135-3.63h-0.014l-1.135,3.63h-0.834L20.801,10.766z"/>
	<path class="st2" d="M29.706,10.766h3.206v0.752h-2.345v1.23h2.222v0.725h-2.222v1.367h2.468v0.766h-3.329
		C29.706,15.606,29.706,10.766,29.706,10.766z"/>
	<path class="st2" d="M35.424,10.766h1.682c0.909,0,1.784,0.362,1.784,1.388c0,0.697-0.431,1.156-1.107,1.306l1.292,2.146h-1.039
		l-1.121-2.051h-0.629v2.051h-0.861L35.424,10.766L35.424,10.766z M36.989,12.851c0.485,0,1.039-0.116,1.039-0.704
		c0-0.526-0.52-0.656-0.964-0.656h-0.779v1.36C36.285,12.851,36.989,12.851,36.989,12.851z"/>
	<path class="st2" d="M41.271,10.766h3.206v0.752h-2.345v1.23h2.222v0.725h-2.222v1.367H44.6v0.766h-3.329V10.766z"/>
	<path class="st2" d="M46.99,10.766h1.716c1.265,0,2.673,0.602,2.673,2.42c0,1.696-1.408,2.42-2.673,2.42H46.99V10.766z
		 M48.569,14.854c0.889,0,1.887-0.362,1.887-1.668c0-1.388-0.998-1.682-1.887-1.682h-0.718v3.35H48.569z"/>
	<path class="st2" d="M57.017,10.766h1.887c0.731,0,1.483,0.335,1.483,1.217c0,0.547-0.342,0.909-0.841,1.06v0.014
		c0.608,0.082,1.046,0.493,1.046,1.142c0,1.053-0.916,1.408-1.832,1.408h-1.743C57.017,15.607,57.017,10.766,57.017,10.766z
		 M57.878,12.735h0.766c0.574,0,0.882-0.239,0.882-0.656c0-0.431-0.308-0.602-0.957-0.602h-0.69L57.878,12.735L57.878,12.735z
		 M57.878,14.882h0.772c0.444,0,1.08-0.089,1.08-0.725c0-0.506-0.349-0.684-1.046-0.684h-0.807L57.878,14.882L57.878,14.882z"/>
	<path class="st2" d="M64.157,13.508l-1.818-2.742h1.053l1.217,2.037l1.23-2.037h0.998l-1.818,2.742v2.099h-0.861v-2.099
		C64.158,13.508,64.157,13.508,64.157,13.508z"/>
</g>
</svg>
